<?xml version="1.0" encoding="utf-8"?>
<svg xmlns="http://www.w3.org/2000/svg" xmlns:xlink="http://www.w3.org/1999/xlink" style="margin: auto; background: none; display: block; shape-rendering: auto;" width="56px" height="56px" viewBox="0 0 100 100" preserveAspectRatio="xMidYMid">
<g transform="rotate(0 50 50)">
  <rect x="49.5" y="19.5" rx="0" ry="0" width="1" height="11" fill="#fe718d">
    <animate attributeName="opacity" values="1;0" keyTimes="0;1" dur="0.5025125628140703s" begin="-0.47967108268615805s" repeatCount="indefinite"></animate>
  </rect>
</g><g transform="rotate(16.363636363636363 50 50)">
  <rect x="49.5" y="19.5" rx="0" ry="0" width="1" height="11" fill="#fe718d">
    <animate attributeName="opacity" values="1;0" keyTimes="0;1" dur="0.5025125628140703s" begin="-0.4568296025582458s" repeatCount="indefinite"></animate>
  </rect>
</g><g transform="rotate(32.72727272727273 50 50)">
  <rect x="49.5" y="19.5" rx="0" ry="0" width="1" height="11" fill="#fe718d">
    <animate attributeName="opacity" values="1;0" keyTimes="0;1" dur="0.5025125628140703s" begin="-0.43398812243033347s" repeatCount="indefinite"></animate>
  </rect>
</g><g transform="rotate(49.09090909090909 50 50)">
  <rect x="49.5" y="19.5" rx="0" ry="0" width="1" height="11" fill="#fe718d">
    <animate attributeName="opacity" values="1;0" keyTimes="0;1" dur="0.5025125628140703s" begin="-0.4111466423024212s" repeatCount="indefinite"></animate>
  </rect>
</g><g transform="rotate(65.45454545454545 50 50)">
  <rect x="49.5" y="19.5" rx="0" ry="0" width="1" height="11" fill="#fe718d">
    <animate attributeName="opacity" values="1;0" keyTimes="0;1" dur="0.5025125628140703s" begin="-0.3883051621745089s" repeatCount="indefinite"></animate>
  </rect>
</g><g transform="rotate(81.81818181818181 50 50)">
  <rect x="49.5" y="19.5" rx="0" ry="0" width="1" height="11" fill="#fe718d">
    <animate attributeName="opacity" values="1;0" keyTimes="0;1" dur="0.5025125628140703s" begin="-0.3654636820465966s" repeatCount="indefinite"></animate>
  </rect>
</g><g transform="rotate(98.18181818181819 50 50)">
  <rect x="49.5" y="19.5" rx="0" ry="0" width="1" height="11" fill="#fe718d">
    <animate attributeName="opacity" values="1;0" keyTimes="0;1" dur="0.5025125628140703s" begin="-0.3426222019186843s" repeatCount="indefinite"></animate>
  </rect>
</g><g transform="rotate(114.54545454545455 50 50)">
  <rect x="49.5" y="19.5" rx="0" ry="0" width="1" height="11" fill="#fe718d">
    <animate attributeName="opacity" values="1;0" keyTimes="0;1" dur="0.5025125628140703s" begin="-0.31978072179077205s" repeatCount="indefinite"></animate>
  </rect>
</g><g transform="rotate(130.9090909090909 50 50)">
  <rect x="49.5" y="19.5" rx="0" ry="0" width="1" height="11" fill="#fe718d">
    <animate attributeName="opacity" values="1;0" keyTimes="0;1" dur="0.5025125628140703s" begin="-0.29693924166285973s" repeatCount="indefinite"></animate>
  </rect>
</g><g transform="rotate(147.27272727272728 50 50)">
  <rect x="49.5" y="19.5" rx="0" ry="0" width="1" height="11" fill="#fe718d">
    <animate attributeName="opacity" values="1;0" keyTimes="0;1" dur="0.5025125628140703s" begin="-0.27409776153494747s" repeatCount="indefinite"></animate>
  </rect>
</g><g transform="rotate(163.63636363636363 50 50)">
  <rect x="49.5" y="19.5" rx="0" ry="0" width="1" height="11" fill="#fe718d">
    <animate attributeName="opacity" values="1;0" keyTimes="0;1" dur="0.5025125628140703s" begin="-0.25125628140703515s" repeatCount="indefinite"></animate>
  </rect>
</g><g transform="rotate(180 50 50)">
  <rect x="49.5" y="19.5" rx="0" ry="0" width="1" height="11" fill="#fe718d">
    <animate attributeName="opacity" values="1;0" keyTimes="0;1" dur="0.5025125628140703s" begin="-0.2284148012791229s" repeatCount="indefinite"></animate>
  </rect>
</g><g transform="rotate(196.36363636363637 50 50)">
  <rect x="49.5" y="19.5" rx="0" ry="0" width="1" height="11" fill="#fe718d">
    <animate attributeName="opacity" values="1;0" keyTimes="0;1" dur="0.5025125628140703s" begin="-0.2055733211512106s" repeatCount="indefinite"></animate>
  </rect>
</g><g transform="rotate(212.72727272727272 50 50)">
  <rect x="49.5" y="19.5" rx="0" ry="0" width="1" height="11" fill="#fe718d">
    <animate attributeName="opacity" values="1;0" keyTimes="0;1" dur="0.5025125628140703s" begin="-0.1827318410232983s" repeatCount="indefinite"></animate>
  </rect>
</g><g transform="rotate(229.0909090909091 50 50)">
  <rect x="49.5" y="19.5" rx="0" ry="0" width="1" height="11" fill="#fe718d">
    <animate attributeName="opacity" values="1;0" keyTimes="0;1" dur="0.5025125628140703s" begin="-0.15989036089538602s" repeatCount="indefinite"></animate>
  </rect>
</g><g transform="rotate(245.45454545454547 50 50)">
  <rect x="49.5" y="19.5" rx="0" ry="0" width="1" height="11" fill="#fe718d">
    <animate attributeName="opacity" values="1;0" keyTimes="0;1" dur="0.5025125628140703s" begin="-0.13704888076747374s" repeatCount="indefinite"></animate>
  </rect>
</g><g transform="rotate(261.8181818181818 50 50)">
  <rect x="49.5" y="19.5" rx="0" ry="0" width="1" height="11" fill="#fe718d">
    <animate attributeName="opacity" values="1;0" keyTimes="0;1" dur="0.5025125628140703s" begin="-0.11420740063956145s" repeatCount="indefinite"></animate>
  </rect>
</g><g transform="rotate(278.1818181818182 50 50)">
  <rect x="49.5" y="19.5" rx="0" ry="0" width="1" height="11" fill="#fe718d">
    <animate attributeName="opacity" values="1;0" keyTimes="0;1" dur="0.5025125628140703s" begin="-0.09136592051164916s" repeatCount="indefinite"></animate>
  </rect>
</g><g transform="rotate(294.54545454545456 50 50)">
  <rect x="49.5" y="19.5" rx="0" ry="0" width="1" height="11" fill="#fe718d">
    <animate attributeName="opacity" values="1;0" keyTimes="0;1" dur="0.5025125628140703s" begin="-0.06852444038373687s" repeatCount="indefinite"></animate>
  </rect>
</g><g transform="rotate(310.90909090909093 50 50)">
  <rect x="49.5" y="19.5" rx="0" ry="0" width="1" height="11" fill="#fe718d">
    <animate attributeName="opacity" values="1;0" keyTimes="0;1" dur="0.5025125628140703s" begin="-0.04568296025582458s" repeatCount="indefinite"></animate>
  </rect>
</g><g transform="rotate(327.27272727272725 50 50)">
  <rect x="49.5" y="19.5" rx="0" ry="0" width="1" height="11" fill="#fe718d">
    <animate attributeName="opacity" values="1;0" keyTimes="0;1" dur="0.5025125628140703s" begin="-0.02284148012791229s" repeatCount="indefinite"></animate>
  </rect>
</g><g transform="rotate(343.6363636363636 50 50)">
  <rect x="49.5" y="19.5" rx="0" ry="0" width="1" height="11" fill="#fe718d">
    <animate attributeName="opacity" values="1;0" keyTimes="0;1" dur="0.5025125628140703s" begin="0s" repeatCount="indefinite"></animate>
  </rect>
</g>
<!-- [ldio] generated by https://loading.io/ --></svg>