<?xml version="1.0" encoding="utf-8"?>
<svg xmlns="http://www.w3.org/2000/svg" xmlns:xlink="http://www.w3.org/1999/xlink" style="margin: auto; background: none; display: block; shape-rendering: auto;" width="200px" height="200px" viewBox="0 0 100 100" preserveAspectRatio="xMidYMid">
<g transform="rotate(0 50 50)">
  <rect x="49.5" y="24.5" rx="0" ry="0" width="1" height="17" fill="#2f3335">
    <animate attributeName="opacity" values="1;0" keyTimes="0;1" dur="0.6024096385542168s" begin="-0.5622489959839357s" repeatCount="indefinite"></animate>
  </rect>
</g><g transform="rotate(24 50 50)">
  <rect x="49.5" y="24.5" rx="0" ry="0" width="1" height="17" fill="#2f3335">
    <animate attributeName="opacity" values="1;0" keyTimes="0;1" dur="0.6024096385542168s" begin="-0.5220883534136546s" repeatCount="indefinite"></animate>
  </rect>
</g><g transform="rotate(48 50 50)">
  <rect x="49.5" y="24.5" rx="0" ry="0" width="1" height="17" fill="#2f3335">
    <animate attributeName="opacity" values="1;0" keyTimes="0;1" dur="0.6024096385542168s" begin="-0.48192771084337344s" repeatCount="indefinite"></animate>
  </rect>
</g><g transform="rotate(72 50 50)">
  <rect x="49.5" y="24.5" rx="0" ry="0" width="1" height="17" fill="#2f3335">
    <animate attributeName="opacity" values="1;0" keyTimes="0;1" dur="0.6024096385542168s" begin="-0.4417670682730923s" repeatCount="indefinite"></animate>
  </rect>
</g><g transform="rotate(96 50 50)">
  <rect x="49.5" y="24.5" rx="0" ry="0" width="1" height="17" fill="#2f3335">
    <animate attributeName="opacity" values="1;0" keyTimes="0;1" dur="0.6024096385542168s" begin="-0.4016064257028112s" repeatCount="indefinite"></animate>
  </rect>
</g><g transform="rotate(120 50 50)">
  <rect x="49.5" y="24.5" rx="0" ry="0" width="1" height="17" fill="#2f3335">
    <animate attributeName="opacity" values="1;0" keyTimes="0;1" dur="0.6024096385542168s" begin="-0.36144578313253006s" repeatCount="indefinite"></animate>
  </rect>
</g><g transform="rotate(144 50 50)">
  <rect x="49.5" y="24.5" rx="0" ry="0" width="1" height="17" fill="#2f3335">
    <animate attributeName="opacity" values="1;0" keyTimes="0;1" dur="0.6024096385542168s" begin="-0.321285140562249s" repeatCount="indefinite"></animate>
  </rect>
</g><g transform="rotate(168 50 50)">
  <rect x="49.5" y="24.5" rx="0" ry="0" width="1" height="17" fill="#2f3335">
    <animate attributeName="opacity" values="1;0" keyTimes="0;1" dur="0.6024096385542168s" begin="-0.28112449799196787s" repeatCount="indefinite"></animate>
  </rect>
</g><g transform="rotate(192 50 50)">
  <rect x="49.5" y="24.5" rx="0" ry="0" width="1" height="17" fill="#2f3335">
    <animate attributeName="opacity" values="1;0" keyTimes="0;1" dur="0.6024096385542168s" begin="-0.24096385542168672s" repeatCount="indefinite"></animate>
  </rect>
</g><g transform="rotate(216 50 50)">
  <rect x="49.5" y="24.5" rx="0" ry="0" width="1" height="17" fill="#2f3335">
    <animate attributeName="opacity" values="1;0" keyTimes="0;1" dur="0.6024096385542168s" begin="-0.2008032128514056s" repeatCount="indefinite"></animate>
  </rect>
</g><g transform="rotate(240 50 50)">
  <rect x="49.5" y="24.5" rx="0" ry="0" width="1" height="17" fill="#2f3335">
    <animate attributeName="opacity" values="1;0" keyTimes="0;1" dur="0.6024096385542168s" begin="-0.1606425702811245s" repeatCount="indefinite"></animate>
  </rect>
</g><g transform="rotate(264 50 50)">
  <rect x="49.5" y="24.5" rx="0" ry="0" width="1" height="17" fill="#2f3335">
    <animate attributeName="opacity" values="1;0" keyTimes="0;1" dur="0.6024096385542168s" begin="-0.12048192771084336s" repeatCount="indefinite"></animate>
  </rect>
</g><g transform="rotate(288 50 50)">
  <rect x="49.5" y="24.5" rx="0" ry="0" width="1" height="17" fill="#2f3335">
    <animate attributeName="opacity" values="1;0" keyTimes="0;1" dur="0.6024096385542168s" begin="-0.08032128514056225s" repeatCount="indefinite"></animate>
  </rect>
</g><g transform="rotate(312 50 50)">
  <rect x="49.5" y="24.5" rx="0" ry="0" width="1" height="17" fill="#2f3335">
    <animate attributeName="opacity" values="1;0" keyTimes="0;1" dur="0.6024096385542168s" begin="-0.040160642570281124s" repeatCount="indefinite"></animate>
  </rect>
</g><g transform="rotate(336 50 50)">
  <rect x="49.5" y="24.5" rx="0" ry="0" width="1" height="17" fill="#2f3335">
    <animate attributeName="opacity" values="1;0" keyTimes="0;1" dur="0.6024096385542168s" begin="0s" repeatCount="indefinite"></animate>
  </rect>
</g>
<!-- [ldio] generated by https://loading.io/ --></svg>